<svg width="146" height="44" viewBox="0 0 146 44" fill="none" xmlns="http://www.w3.org/2000/svg">
<path d="M0.0440674 22.1294C0.0440674 34.0353 9.96294 43.8706 21.97 43.8706C33.977 43.8706 43.8959 34.0353 43.8959 22.1294C43.8959 10.2235 33.977 0.517639 21.97 0.517639C9.96294 0.517639 0.0440674 10.2235 0.0440674 22.1294ZM30.0617 32.2235C24.9718 29.1176 18.4462 28.3412 10.8765 30.0235C9.04936 30.2823 8.78833 27.6941 10.3545 27.4353C18.7072 25.4941 25.7548 26.4 31.4973 29.8941C32.933 30.8 31.4973 33 30.0617 32.2235ZM32.2804 26.4C26.4074 22.7765 17.4021 21.7412 10.485 23.8118C8.26629 24.4588 7.48322 21.0941 9.5714 20.5765C17.5326 18.247 27.321 19.4118 34.1076 23.5529C35.9347 24.7176 34.1076 27.5647 32.2804 26.4ZM9.44089 17.2118C7.2222 17.9882 5.78657 14.2353 8.26629 13.3294C15.9665 11 29.0176 11.3882 37.1093 16.1765C39.328 17.3412 37.2398 20.9647 34.8906 19.6706C27.843 15.5294 16.097 15.1412 9.44089 17.2118ZM58.9047 28.9882C56.686 28.9882 54.5979 28.2118 52.7707 26.4C52.6402 26.4 52.6402 26.5294 52.6402 26.5294L50.552 28.9882C50.4215 29.1176 50.4215 29.247 50.552 29.3765C52.9012 31.447 55.7725 32.4823 58.9047 32.4823C63.3421 32.4823 66.0829 30.0235 66.0829 26.4C66.0829 23.2941 64.1252 21.6118 59.5573 20.447C55.7725 19.5412 55.1199 18.8941 55.1199 17.6C55.1199 16.3059 56.425 15.5294 58.1217 15.5294C59.8183 15.5294 61.3844 16.1765 63.2116 17.4706C63.2116 17.4706 63.3421 17.6 63.4726 17.6C63.6031 17.6 63.6031 17.4706 63.6031 17.4706L65.4303 14.8823C65.5608 14.7529 65.5608 14.7529 65.4303 14.6235C63.3421 12.9412 60.8624 12.0353 58.1217 12.0353C54.0758 12.0353 51.2046 14.4941 51.2046 17.9882C51.2046 21.7412 53.8148 22.9059 57.9912 23.9412C61.6455 24.7176 62.1675 25.4941 62.1675 26.7882C62.1675 28.2118 60.8624 28.9882 58.9047 28.9882ZM71.3033 19.0235V17.3412C71.3033 17.2118 71.1728 17.0823 71.0423 17.0823H67.649C67.5185 17.0823 67.388 17.2118 67.388 17.3412V36.3647C67.388 36.4941 67.5185 36.6235 67.649 36.6235H71.0423C71.1728 36.6235 71.3033 36.4941 71.3033 36.3647V30.4118C72.6084 31.8353 74.0441 32.4823 76.0017 32.4823C79.5255 32.4823 83.0493 29.7647 83.0493 24.5882C83.0493 19.4118 79.5255 16.8235 76.0017 16.8235C74.0441 16.8235 72.6084 17.4706 71.3033 19.0235ZM75.2187 29.1176C72.8695 29.1176 71.1728 27.1765 71.1728 24.5882C71.1728 22 72.8695 20.1882 75.2187 20.1882C77.5679 20.1882 79.134 22 79.134 24.5882C79.134 27.1765 77.5679 29.1176 75.2187 29.1176ZM84.0934 24.7176C84.0934 29.1176 87.6172 32.4823 92.1851 32.4823C96.7531 32.4823 100.277 28.9882 100.277 24.5882C100.277 20.1882 96.8836 16.8235 92.3157 16.8235C87.7478 16.8235 84.0934 20.3176 84.0934 24.7176ZM88.0088 24.5882C88.0088 22 89.7054 20.1882 92.1851 20.1882C94.6649 20.1882 96.492 22.1294 96.492 24.7176C96.492 27.3059 94.7954 29.1176 92.3157 29.1176C89.8359 29.1176 88.0088 27.1765 88.0088 24.5882ZM106.28 17.0823V13.3294C106.28 13.2 106.28 13.0706 106.15 13.0706H102.757C102.626 13.0706 102.496 13.2 102.496 13.3294V17.0823H100.799C100.668 17.0823 100.538 17.2118 100.538 17.3412V20.1882C100.538 20.3176 100.668 20.447 100.799 20.447H102.496V27.9529C102.496 30.9294 103.931 32.4823 106.933 32.4823C108.108 32.4823 109.282 32.2235 110.196 31.7059C110.326 31.7059 110.326 31.5765 110.326 31.447V28.7294C110.326 28.6 110.326 28.4706 110.196 28.4706H109.935C109.282 28.8588 108.499 28.9882 107.847 28.9882C106.802 28.9882 106.28 28.4706 106.28 27.4353V20.447H110.196C110.326 20.447 110.457 20.3176 110.457 20.1882V17.3412C110.457 17.2118 110.326 17.0823 110.196 17.0823H106.28ZM123.116 16.6941C123.116 15.2706 123.638 14.7529 124.813 14.7529C125.466 14.7529 126.118 14.7529 126.771 15.0118H126.901C126.901 15.0118 127.032 14.8823 127.032 14.7529V12.0353C127.032 11.9059 127.032 11.7765 126.901 11.7765C126.249 11.5176 125.335 11.3882 124.03 11.3882C120.898 11.3882 119.332 13.2 119.332 16.4353V17.0823H117.635C117.504 17.0823 117.374 17.2118 117.374 17.3412V20.1882C117.374 20.3176 117.504 20.447 117.635 20.447H119.332V31.9647C119.332 32.0941 119.462 32.2235 119.593 32.2235H122.986C123.116 32.2235 123.116 32.0941 123.116 31.9647V20.447H126.379L131.208 31.9647C130.686 33.1294 130.164 33.3882 129.381 33.3882C128.728 33.3882 128.076 33.2588 127.423 32.8706H127.293L127.162 33L125.988 35.4588C125.988 35.5882 125.988 35.847 126.118 35.847C127.293 36.4941 128.337 36.7529 129.642 36.7529C132.122 36.7529 133.557 35.5882 134.732 32.4823L140.605 17.4706V17.2118C140.605 17.0823 140.474 17.0823 140.344 17.0823H136.82C136.69 17.0823 136.69 17.2118 136.69 17.3412L133.035 27.4353L129.12 17.3412C129.12 17.2118 128.989 17.0823 128.859 17.0823H123.116V16.6941ZM112.284 17.0823C112.153 17.0823 112.023 17.2118 112.023 17.3412V31.9647C112.023 32.0941 112.153 32.2235 112.284 32.2235H115.677C115.808 32.2235 115.808 32.0941 115.808 31.9647V17.3412C115.808 17.2118 115.808 17.0823 115.677 17.0823H112.284ZM111.501 12.8118C111.501 14.1059 112.675 15.2706 113.981 15.2706C115.286 15.2706 116.33 14.1059 116.33 12.8118C116.33 11.5176 115.286 10.4823 113.981 10.4823C112.675 10.4823 111.501 11.5176 111.501 12.8118ZM143.476 21.7412C144.781 21.7412 145.956 20.7059 145.956 19.4118C145.956 18.1176 144.781 17.0823 143.476 17.0823C142.171 17.0823 141.127 18.1176 141.127 19.4118C141.127 20.7059 142.171 21.7412 143.476 21.7412ZM143.476 17.3412C144.651 17.3412 145.695 18.247 145.695 19.4118C145.695 20.5765 144.651 21.4823 143.476 21.4823C142.302 21.4823 141.388 20.5765 141.388 19.4118C141.388 18.247 142.302 17.3412 143.476 17.3412ZM143.998 19.6706C144.39 19.5412 144.651 19.2823 144.651 18.8941C144.651 18.3765 144.129 18.1176 143.607 18.1176H142.563V20.5765H143.085V19.8H143.607L144.129 20.5765H144.781L143.998 19.6706ZM143.607 18.5059C143.868 18.5059 144.129 18.6353 144.129 18.8941C144.129 19.1529 143.868 19.2823 143.607 19.2823H143.085V18.5059H143.607Z" fill="#030303"/>
</svg>
