<svg width="21" height="21" viewBox="0 0 21 21" fill="none" xmlns="http://www.w3.org/2000/svg">
<rect x="0.375572" y="0.125" width="20" height="20" rx="2" fill="url(#paint0_linear_507_13)"/>
<path d="M10.0002 15.2505C9.8246 15.2503 9.6531 15.1972 9.50804 15.0982C7.35909 13.6394 6.42859 12.6392 5.91534 12.0138C4.82159 10.6808 4.29796 9.31225 4.31273 7.83022C4.32995 6.13189 5.69249 4.75049 7.35007 4.75049C8.55538 4.75049 9.39019 5.42943 9.87636 5.9949C9.89176 6.01263 9.91079 6.02685 9.93216 6.0366C9.95353 6.04634 9.97674 6.05139 10.0002 6.05139C10.0237 6.05139 10.0469 6.04634 10.0683 6.0366C10.0897 6.02685 10.1087 6.01263 10.1241 5.9949C10.6103 5.42889 11.4451 4.75049 12.6504 4.75049C14.308 4.75049 15.6705 6.13189 15.6877 7.83049C15.7025 9.31279 15.1783 10.6813 14.0851 12.0141C13.5719 12.6394 12.6414 13.6397 10.4924 15.0985C10.3473 15.1974 10.1758 15.2503 10.0002 15.2505V15.2505Z" fill="#BFBFBF"/>
<defs>
<linearGradient id="paint0_linear_507_13" x1="1.37557" y1="1.125" x2="19.3756" y2="19.625" gradientUnits="userSpaceOnUse">
<stop stop-color="#5323F2"/>
<stop offset="1" stop-color="#9D9D9D"/>
</linearGradient>
</defs>
</svg>
