<svg width="20" height="21" viewBox="0 0 20 21" fill="none" xmlns="http://www.w3.org/2000/svg">
<path d="M0.969661 8.90784L0.969762 8.90775L9.71966 0.998572C9.7197 0.998542 9.71973 0.998511 9.71976 0.998481C9.8652 0.867173 10.1348 0.867173 10.2802 0.998481C10.2803 0.998511 10.2803 0.998542 10.2803 0.998572L19.0302 8.90775L19.0303 8.90784C19.0877 8.95971 19.1 9.00927 19.1 9.03892V19.8701C19.1 19.9023 19.0875 19.9498 19.0304 20.0014C18.9718 20.0543 18.8752 20.1 18.75 20.1H13.4V13.0907V12.1907H12.5H7.5H6.6V13.0907V20.1H1.25C1.12485 20.1 1.0282 20.0543 0.969628 20.0014C0.912531 19.9498 0.9 19.9023 0.9 19.8701V9.03892C0.9 9.00927 0.912257 8.95971 0.969661 8.90784Z" stroke="white" stroke-opacity="0.75" stroke-width="1.8"/>
</svg>
