<svg width="32" height="32" viewBox="0 0 32 32" fill="none" xmlns="http://www.w3.org/2000/svg">
<g clip-path="url(#clip0_50_934)">
<path fill-rule="evenodd" clip-rule="evenodd" d="M9.52 3.36842C6.01179 3.36842 3.2 6.34403 3.2 10.2659C3.2 12.6774 4.18682 14.9889 6.22768 17.6925C8.28818 20.4221 11.2643 23.3508 15.0038 27.025L15.006 27.0272L16.0042 28.0118L16.995 27.0418L16.9965 27.0403C20.7356 23.3586 23.7114 20.4265 25.772 17.6949C27.8132 14.989 28.8 12.6774 28.8 10.2659C28.8 6.34403 25.9882 3.36842 22.48 3.36842C20.4764 3.36842 18.5149 4.38749 17.2328 6.0188C16.9289 6.40556 16.4769 6.62946 16 6.62946C15.5231 6.62946 15.0711 6.40556 14.7672 6.0188C13.4851 4.38749 11.5236 3.36842 9.52 3.36842ZM0 10.2659C0 4.57627 4.15781 0 9.52 0C11.9233 0 14.2246 0.963245 16 2.55598C17.7754 0.963245 20.0767 0 22.48 0C27.8422 0 32 4.57627 32 10.2659C32 13.7523 30.5388 16.7925 28.278 19.7896C26.0639 22.7247 22.9338 25.8067 19.3138 29.371L19.181 29.5018L19.1776 29.5051L17.0896 31.5491C16.4738 32.152 15.5196 32.1501 14.906 31.5447L12.8202 29.4874L12.7233 29.3921C9.08778 25.8201 5.94409 22.7313 3.72232 19.7881C1.46118 16.7926 0 13.7524 0 10.2659Z" fill="#B3B3B3"/>
</g>
<defs>
<clipPath id="clip0_50_934">
<rect width="32" height="32" fill="white"/>
</clipPath>
</defs>
</svg>
